<mxfile host="app.diagrams.net" modified="2023-07-04T02:24:24.494Z" agent="Mozilla/5.0 (Macintosh; Intel Mac OS X 10_15_7) AppleWebKit/537.36 (KHTML, like Gecko) Chrome/111.0.0.0 Safari/537.36" etag="pOWFIyqg-MP65dfPWAwR" version="21.5.2" type="github">
  <diagram name="第 1 页" id="-ynwK41YF-8-0BeGS2u0">
    <mxGraphModel dx="2295" dy="948" grid="1" gridSize="10" guides="1" tooltips="1" connect="1" arrows="1" fold="1" page="1" pageScale="1" pageWidth="827" pageHeight="1169" math="0" shadow="0">
      <root>
        <mxCell id="0" />
        <mxCell id="1" parent="0" />
        <mxCell id="LhFnAlRdqvBIct9EWM2n-82" value="" style="shape=cylinder3;whiteSpace=wrap;html=1;boundedLbl=1;backgroundOutline=1;size=15;" vertex="1" parent="1">
          <mxGeometry x="20" y="520" width="200" height="510" as="geometry" />
        </mxCell>
        <mxCell id="LhFnAlRdqvBIct9EWM2n-5" style="edgeStyle=orthogonalEdgeStyle;rounded=0;orthogonalLoop=1;jettySize=auto;html=1;entryX=0;entryY=0.5;entryDx=0;entryDy=0;curved=1;" edge="1" parent="1" source="LhFnAlRdqvBIct9EWM2n-1" target="LhFnAlRdqvBIct9EWM2n-2">
          <mxGeometry relative="1" as="geometry" />
        </mxCell>
        <mxCell id="LhFnAlRdqvBIct9EWM2n-86" value="直接修改" style="edgeLabel;html=1;align=center;verticalAlign=middle;resizable=0;points=[];" vertex="1" connectable="0" parent="LhFnAlRdqvBIct9EWM2n-5">
          <mxGeometry x="-0.6186" y="-9" relative="1" as="geometry">
            <mxPoint as="offset" />
          </mxGeometry>
        </mxCell>
        <mxCell id="LhFnAlRdqvBIct9EWM2n-1" value="员工主页" style="rounded=1;whiteSpace=wrap;html=1;" vertex="1" parent="1">
          <mxGeometry x="132" y="60" width="120" height="60" as="geometry" />
        </mxCell>
        <mxCell id="LhFnAlRdqvBIct9EWM2n-2" value="宽表" style="rounded=1;whiteSpace=wrap;html=1;" vertex="1" parent="1">
          <mxGeometry x="630" y="40" width="130" height="400" as="geometry" />
        </mxCell>
        <mxCell id="LhFnAlRdqvBIct9EWM2n-6" style="edgeStyle=orthogonalEdgeStyle;rounded=0;orthogonalLoop=1;jettySize=auto;html=1;entryX=0;entryY=0.5;entryDx=0;entryDy=0;curved=1;" edge="1" parent="1" source="LhFnAlRdqvBIct9EWM2n-3" target="LhFnAlRdqvBIct9EWM2n-2">
          <mxGeometry relative="1" as="geometry" />
        </mxCell>
        <mxCell id="LhFnAlRdqvBIct9EWM2n-83" value="直接修改" style="edgeLabel;html=1;align=center;verticalAlign=middle;resizable=0;points=[];" vertex="1" connectable="0" parent="LhFnAlRdqvBIct9EWM2n-6">
          <mxGeometry x="-0.5837" y="-3" relative="1" as="geometry">
            <mxPoint as="offset" />
          </mxGeometry>
        </mxCell>
        <mxCell id="LhFnAlRdqvBIct9EWM2n-3" value="设计师信息" style="rounded=1;whiteSpace=wrap;html=1;" vertex="1" parent="1">
          <mxGeometry x="132" y="170" width="120" height="60" as="geometry" />
        </mxCell>
        <mxCell id="LhFnAlRdqvBIct9EWM2n-7" style="edgeStyle=orthogonalEdgeStyle;rounded=0;orthogonalLoop=1;jettySize=auto;html=1;entryX=0;entryY=0.5;entryDx=0;entryDy=0;curved=1;" edge="1" parent="1" source="LhFnAlRdqvBIct9EWM2n-4" target="LhFnAlRdqvBIct9EWM2n-2">
          <mxGeometry relative="1" as="geometry" />
        </mxCell>
        <mxCell id="LhFnAlRdqvBIct9EWM2n-84" value="直接修改" style="edgeLabel;html=1;align=center;verticalAlign=middle;resizable=0;points=[];" vertex="1" connectable="0" parent="LhFnAlRdqvBIct9EWM2n-7">
          <mxGeometry x="-0.5098" y="7" relative="1" as="geometry">
            <mxPoint as="offset" />
          </mxGeometry>
        </mxCell>
        <mxCell id="LhFnAlRdqvBIct9EWM2n-4" value="行为信息" style="rounded=1;whiteSpace=wrap;html=1;" vertex="1" parent="1">
          <mxGeometry x="132" y="290" width="120" height="60" as="geometry" />
        </mxCell>
        <mxCell id="LhFnAlRdqvBIct9EWM2n-9" style="edgeStyle=orthogonalEdgeStyle;rounded=0;orthogonalLoop=1;jettySize=auto;html=1;entryX=0;entryY=0.5;entryDx=0;entryDy=0;curved=1;" edge="1" parent="1" source="LhFnAlRdqvBIct9EWM2n-8" target="LhFnAlRdqvBIct9EWM2n-1">
          <mxGeometry relative="1" as="geometry" />
        </mxCell>
        <mxCell id="LhFnAlRdqvBIct9EWM2n-12" value="修改动作" style="edgeLabel;html=1;align=center;verticalAlign=middle;resizable=0;points=[];" vertex="1" connectable="0" parent="LhFnAlRdqvBIct9EWM2n-9">
          <mxGeometry x="0.2063" y="-13" relative="1" as="geometry">
            <mxPoint as="offset" />
          </mxGeometry>
        </mxCell>
        <mxCell id="LhFnAlRdqvBIct9EWM2n-10" style="edgeStyle=orthogonalEdgeStyle;rounded=0;orthogonalLoop=1;jettySize=auto;html=1;curved=1;" edge="1" parent="1" source="LhFnAlRdqvBIct9EWM2n-8" target="LhFnAlRdqvBIct9EWM2n-3">
          <mxGeometry relative="1" as="geometry" />
        </mxCell>
        <mxCell id="LhFnAlRdqvBIct9EWM2n-13" value="修改动作" style="edgeLabel;html=1;align=center;verticalAlign=middle;resizable=0;points=[];" vertex="1" connectable="0" parent="LhFnAlRdqvBIct9EWM2n-10">
          <mxGeometry x="0.381" y="-2" relative="1" as="geometry">
            <mxPoint as="offset" />
          </mxGeometry>
        </mxCell>
        <mxCell id="LhFnAlRdqvBIct9EWM2n-11" style="edgeStyle=orthogonalEdgeStyle;rounded=0;orthogonalLoop=1;jettySize=auto;html=1;entryX=0;entryY=0.5;entryDx=0;entryDy=0;curved=1;" edge="1" parent="1" source="LhFnAlRdqvBIct9EWM2n-8" target="LhFnAlRdqvBIct9EWM2n-4">
          <mxGeometry relative="1" as="geometry" />
        </mxCell>
        <mxCell id="LhFnAlRdqvBIct9EWM2n-14" value="修改动作" style="edgeLabel;html=1;align=center;verticalAlign=middle;resizable=0;points=[];" vertex="1" connectable="0" parent="LhFnAlRdqvBIct9EWM2n-11">
          <mxGeometry x="0.5515" y="12" relative="1" as="geometry">
            <mxPoint as="offset" />
          </mxGeometry>
        </mxCell>
        <mxCell id="LhFnAlRdqvBIct9EWM2n-33" style="edgeStyle=orthogonalEdgeStyle;rounded=0;orthogonalLoop=1;jettySize=auto;html=1;entryX=0;entryY=0.5;entryDx=0;entryDy=0;curved=1;" edge="1" parent="1" source="LhFnAlRdqvBIct9EWM2n-8" target="LhFnAlRdqvBIct9EWM2n-32">
          <mxGeometry relative="1" as="geometry" />
        </mxCell>
        <mxCell id="LhFnAlRdqvBIct9EWM2n-8" value="Actor" style="shape=umlActor;verticalLabelPosition=bottom;verticalAlign=top;html=1;outlineConnect=0;" vertex="1" parent="1">
          <mxGeometry x="-190" y="210" width="30" height="60" as="geometry" />
        </mxCell>
        <mxCell id="LhFnAlRdqvBIct9EWM2n-39" style="edgeStyle=orthogonalEdgeStyle;rounded=0;orthogonalLoop=1;jettySize=auto;html=1;" edge="1" parent="1" source="LhFnAlRdqvBIct9EWM2n-17" target="LhFnAlRdqvBIct9EWM2n-40">
          <mxGeometry relative="1" as="geometry">
            <mxPoint x="140" y="720" as="targetPoint" />
          </mxGeometry>
        </mxCell>
        <mxCell id="LhFnAlRdqvBIct9EWM2n-17" value="案例" style="rounded=1;whiteSpace=wrap;html=1;" vertex="1" parent="1">
          <mxGeometry x="-160" y="584" width="120" height="60" as="geometry" />
        </mxCell>
        <mxCell id="LhFnAlRdqvBIct9EWM2n-18" value="宽表" style="rounded=1;whiteSpace=wrap;html=1;" vertex="1" parent="1">
          <mxGeometry x="1460" y="527.5" width="130" height="400" as="geometry" />
        </mxCell>
        <mxCell id="LhFnAlRdqvBIct9EWM2n-43" style="edgeStyle=orthogonalEdgeStyle;rounded=0;orthogonalLoop=1;jettySize=auto;html=1;" edge="1" parent="1" source="LhFnAlRdqvBIct9EWM2n-20" target="LhFnAlRdqvBIct9EWM2n-41">
          <mxGeometry relative="1" as="geometry" />
        </mxCell>
        <mxCell id="LhFnAlRdqvBIct9EWM2n-20" value="设计师信息" style="rounded=1;whiteSpace=wrap;html=1;" vertex="1" parent="1">
          <mxGeometry x="-160" y="700" width="120" height="60" as="geometry" />
        </mxCell>
        <mxCell id="LhFnAlRdqvBIct9EWM2n-44" style="edgeStyle=orthogonalEdgeStyle;rounded=0;orthogonalLoop=1;jettySize=auto;html=1;" edge="1" parent="1" source="LhFnAlRdqvBIct9EWM2n-22" target="LhFnAlRdqvBIct9EWM2n-42">
          <mxGeometry relative="1" as="geometry" />
        </mxCell>
        <mxCell id="LhFnAlRdqvBIct9EWM2n-22" value="行为信息" style="rounded=1;whiteSpace=wrap;html=1;" vertex="1" parent="1">
          <mxGeometry x="-170" y="820" width="120" height="60" as="geometry" />
        </mxCell>
        <mxCell id="LhFnAlRdqvBIct9EWM2n-23" style="edgeStyle=orthogonalEdgeStyle;rounded=0;orthogonalLoop=1;jettySize=auto;html=1;entryX=0;entryY=0.5;entryDx=0;entryDy=0;curved=1;" edge="1" parent="1" source="LhFnAlRdqvBIct9EWM2n-29" target="LhFnAlRdqvBIct9EWM2n-17">
          <mxGeometry relative="1" as="geometry" />
        </mxCell>
        <mxCell id="LhFnAlRdqvBIct9EWM2n-24" value="修改动作" style="edgeLabel;html=1;align=center;verticalAlign=middle;resizable=0;points=[];" vertex="1" connectable="0" parent="LhFnAlRdqvBIct9EWM2n-23">
          <mxGeometry x="0.2063" y="-13" relative="1" as="geometry">
            <mxPoint as="offset" />
          </mxGeometry>
        </mxCell>
        <mxCell id="LhFnAlRdqvBIct9EWM2n-25" style="edgeStyle=orthogonalEdgeStyle;rounded=0;orthogonalLoop=1;jettySize=auto;html=1;curved=1;entryX=0;entryY=0.5;entryDx=0;entryDy=0;" edge="1" parent="1" source="LhFnAlRdqvBIct9EWM2n-29" target="LhFnAlRdqvBIct9EWM2n-20">
          <mxGeometry relative="1" as="geometry" />
        </mxCell>
        <mxCell id="LhFnAlRdqvBIct9EWM2n-26" value="修改动作" style="edgeLabel;html=1;align=center;verticalAlign=middle;resizable=0;points=[];" vertex="1" connectable="0" parent="LhFnAlRdqvBIct9EWM2n-25">
          <mxGeometry x="0.381" y="-2" relative="1" as="geometry">
            <mxPoint as="offset" />
          </mxGeometry>
        </mxCell>
        <mxCell id="LhFnAlRdqvBIct9EWM2n-27" style="edgeStyle=orthogonalEdgeStyle;rounded=0;orthogonalLoop=1;jettySize=auto;html=1;entryX=0;entryY=0.5;entryDx=0;entryDy=0;curved=1;" edge="1" parent="1" source="LhFnAlRdqvBIct9EWM2n-29" target="LhFnAlRdqvBIct9EWM2n-22">
          <mxGeometry relative="1" as="geometry" />
        </mxCell>
        <mxCell id="LhFnAlRdqvBIct9EWM2n-28" value="修改动作" style="edgeLabel;html=1;align=center;verticalAlign=middle;resizable=0;points=[];" vertex="1" connectable="0" parent="LhFnAlRdqvBIct9EWM2n-27">
          <mxGeometry x="0.5515" y="12" relative="1" as="geometry">
            <mxPoint as="offset" />
          </mxGeometry>
        </mxCell>
        <mxCell id="LhFnAlRdqvBIct9EWM2n-76" style="edgeStyle=orthogonalEdgeStyle;rounded=0;orthogonalLoop=1;jettySize=auto;html=1;entryX=0;entryY=0.5;entryDx=0;entryDy=0;curved=1;" edge="1" parent="1" source="LhFnAlRdqvBIct9EWM2n-29" target="LhFnAlRdqvBIct9EWM2n-75">
          <mxGeometry relative="1" as="geometry" />
        </mxCell>
        <mxCell id="LhFnAlRdqvBIct9EWM2n-89" style="edgeStyle=orthogonalEdgeStyle;rounded=0;orthogonalLoop=1;jettySize=auto;html=1;entryX=0;entryY=0.25;entryDx=0;entryDy=0;elbow=vertical;curved=1;" edge="1" parent="1" source="LhFnAlRdqvBIct9EWM2n-29" target="LhFnAlRdqvBIct9EWM2n-87">
          <mxGeometry relative="1" as="geometry" />
        </mxCell>
        <mxCell id="LhFnAlRdqvBIct9EWM2n-29" value="Actor" style="shape=umlActor;verticalLabelPosition=bottom;verticalAlign=top;html=1;outlineConnect=0;" vertex="1" parent="1">
          <mxGeometry x="-500" y="767.5" width="30" height="60" as="geometry" />
        </mxCell>
        <mxCell id="LhFnAlRdqvBIct9EWM2n-34" style="edgeStyle=orthogonalEdgeStyle;rounded=0;orthogonalLoop=1;jettySize=auto;html=1;entryX=0;entryY=0.5;entryDx=0;entryDy=0;curved=1;" edge="1" parent="1" source="LhFnAlRdqvBIct9EWM2n-32" target="LhFnAlRdqvBIct9EWM2n-2">
          <mxGeometry relative="1" as="geometry" />
        </mxCell>
        <mxCell id="LhFnAlRdqvBIct9EWM2n-85" value="直接修改" style="edgeLabel;html=1;align=center;verticalAlign=middle;resizable=0;points=[];" vertex="1" connectable="0" parent="LhFnAlRdqvBIct9EWM2n-34">
          <mxGeometry x="-0.5863" y="9" relative="1" as="geometry">
            <mxPoint as="offset" />
          </mxGeometry>
        </mxCell>
        <mxCell id="LhFnAlRdqvBIct9EWM2n-32" value="门店信息" style="rounded=1;whiteSpace=wrap;html=1;" vertex="1" parent="1">
          <mxGeometry x="132" y="390" width="120" height="60" as="geometry" />
        </mxCell>
        <mxCell id="LhFnAlRdqvBIct9EWM2n-45" style="edgeStyle=orthogonalEdgeStyle;rounded=0;orthogonalLoop=1;jettySize=auto;html=1;" edge="1" parent="1" source="LhFnAlRdqvBIct9EWM2n-40" target="LhFnAlRdqvBIct9EWM2n-46">
          <mxGeometry relative="1" as="geometry">
            <mxPoint x="320" y="614" as="targetPoint" />
          </mxGeometry>
        </mxCell>
        <mxCell id="LhFnAlRdqvBIct9EWM2n-40" value="mq" style="rounded=1;whiteSpace=wrap;html=1;" vertex="1" parent="1">
          <mxGeometry x="60" y="584" width="120" height="60" as="geometry" />
        </mxCell>
        <mxCell id="LhFnAlRdqvBIct9EWM2n-49" style="edgeStyle=orthogonalEdgeStyle;rounded=0;orthogonalLoop=1;jettySize=auto;html=1;" edge="1" parent="1" source="LhFnAlRdqvBIct9EWM2n-41" target="LhFnAlRdqvBIct9EWM2n-47">
          <mxGeometry relative="1" as="geometry" />
        </mxCell>
        <mxCell id="LhFnAlRdqvBIct9EWM2n-41" value="mq" style="rounded=1;whiteSpace=wrap;html=1;" vertex="1" parent="1">
          <mxGeometry x="60" y="700" width="120" height="60" as="geometry" />
        </mxCell>
        <mxCell id="LhFnAlRdqvBIct9EWM2n-50" style="edgeStyle=orthogonalEdgeStyle;rounded=0;orthogonalLoop=1;jettySize=auto;html=1;entryX=0;entryY=0.5;entryDx=0;entryDy=0;" edge="1" parent="1" source="LhFnAlRdqvBIct9EWM2n-42" target="LhFnAlRdqvBIct9EWM2n-48">
          <mxGeometry relative="1" as="geometry" />
        </mxCell>
        <mxCell id="LhFnAlRdqvBIct9EWM2n-42" value="mq" style="rounded=1;whiteSpace=wrap;html=1;" vertex="1" parent="1">
          <mxGeometry x="60" y="820" width="120" height="60" as="geometry" />
        </mxCell>
        <mxCell id="LhFnAlRdqvBIct9EWM2n-51" style="edgeStyle=orthogonalEdgeStyle;rounded=0;orthogonalLoop=1;jettySize=auto;html=1;" edge="1" parent="1" source="LhFnAlRdqvBIct9EWM2n-46" target="LhFnAlRdqvBIct9EWM2n-52">
          <mxGeometry relative="1" as="geometry">
            <mxPoint x="610" y="614" as="targetPoint" />
          </mxGeometry>
        </mxCell>
        <mxCell id="LhFnAlRdqvBIct9EWM2n-46" value="监听" style="rounded=1;whiteSpace=wrap;html=1;" vertex="1" parent="1">
          <mxGeometry x="283" y="584" width="120" height="60" as="geometry" />
        </mxCell>
        <mxCell id="LhFnAlRdqvBIct9EWM2n-53" style="edgeStyle=orthogonalEdgeStyle;rounded=0;orthogonalLoop=1;jettySize=auto;html=1;" edge="1" parent="1" source="LhFnAlRdqvBIct9EWM2n-47" target="LhFnAlRdqvBIct9EWM2n-54">
          <mxGeometry relative="1" as="geometry">
            <mxPoint x="510" y="730" as="targetPoint" />
          </mxGeometry>
        </mxCell>
        <mxCell id="LhFnAlRdqvBIct9EWM2n-47" value="监听" style="rounded=1;whiteSpace=wrap;html=1;" vertex="1" parent="1">
          <mxGeometry x="283" y="698" width="120" height="60" as="geometry" />
        </mxCell>
        <mxCell id="LhFnAlRdqvBIct9EWM2n-59" style="edgeStyle=orthogonalEdgeStyle;rounded=0;orthogonalLoop=1;jettySize=auto;html=1;entryX=0;entryY=0.5;entryDx=0;entryDy=0;" edge="1" parent="1" source="LhFnAlRdqvBIct9EWM2n-48" target="LhFnAlRdqvBIct9EWM2n-60">
          <mxGeometry relative="1" as="geometry">
            <mxPoint x="470" y="850" as="targetPoint" />
          </mxGeometry>
        </mxCell>
        <mxCell id="LhFnAlRdqvBIct9EWM2n-48" value="监听" style="rounded=1;whiteSpace=wrap;html=1;" vertex="1" parent="1">
          <mxGeometry x="283" y="818" width="120" height="60" as="geometry" />
        </mxCell>
        <mxCell id="LhFnAlRdqvBIct9EWM2n-61" style="edgeStyle=orthogonalEdgeStyle;rounded=0;orthogonalLoop=1;jettySize=auto;html=1;" edge="1" parent="1" source="LhFnAlRdqvBIct9EWM2n-52" target="LhFnAlRdqvBIct9EWM2n-62">
          <mxGeometry relative="1" as="geometry">
            <mxPoint x="930" y="720" as="targetPoint" />
          </mxGeometry>
        </mxCell>
        <mxCell id="LhFnAlRdqvBIct9EWM2n-52" value="案例id列表" style="rounded=1;whiteSpace=wrap;html=1;" vertex="1" parent="1">
          <mxGeometry x="680" y="584" width="120" height="60" as="geometry" />
        </mxCell>
        <mxCell id="LhFnAlRdqvBIct9EWM2n-57" style="edgeStyle=orthogonalEdgeStyle;rounded=0;orthogonalLoop=1;jettySize=auto;html=1;" edge="1" parent="1" source="LhFnAlRdqvBIct9EWM2n-54" target="LhFnAlRdqvBIct9EWM2n-58">
          <mxGeometry relative="1" as="geometry">
            <mxPoint x="690" y="730" as="targetPoint" />
          </mxGeometry>
        </mxCell>
        <mxCell id="LhFnAlRdqvBIct9EWM2n-54" value="反查案例表，获取案例id列表" style="rounded=1;whiteSpace=wrap;html=1;" vertex="1" parent="1">
          <mxGeometry x="480" y="697.5" width="120" height="60" as="geometry" />
        </mxCell>
        <mxCell id="LhFnAlRdqvBIct9EWM2n-63" style="edgeStyle=orthogonalEdgeStyle;rounded=0;orthogonalLoop=1;jettySize=auto;html=1;" edge="1" parent="1" source="LhFnAlRdqvBIct9EWM2n-58" target="LhFnAlRdqvBIct9EWM2n-62">
          <mxGeometry relative="1" as="geometry" />
        </mxCell>
        <mxCell id="LhFnAlRdqvBIct9EWM2n-58" value="案例id列表" style="rounded=1;whiteSpace=wrap;html=1;" vertex="1" parent="1">
          <mxGeometry x="680" y="700" width="120" height="60" as="geometry" />
        </mxCell>
        <mxCell id="LhFnAlRdqvBIct9EWM2n-64" style="edgeStyle=orthogonalEdgeStyle;rounded=0;orthogonalLoop=1;jettySize=auto;html=1;entryX=0.5;entryY=1;entryDx=0;entryDy=0;" edge="1" parent="1" source="LhFnAlRdqvBIct9EWM2n-60" target="LhFnAlRdqvBIct9EWM2n-62">
          <mxGeometry relative="1" as="geometry" />
        </mxCell>
        <mxCell id="LhFnAlRdqvBIct9EWM2n-60" value="案例id列表" style="rounded=1;whiteSpace=wrap;html=1;" vertex="1" parent="1">
          <mxGeometry x="680" y="820" width="120" height="60" as="geometry" />
        </mxCell>
        <mxCell id="LhFnAlRdqvBIct9EWM2n-67" style="edgeStyle=orthogonalEdgeStyle;rounded=0;orthogonalLoop=1;jettySize=auto;html=1;" edge="1" parent="1" source="LhFnAlRdqvBIct9EWM2n-62" target="LhFnAlRdqvBIct9EWM2n-69">
          <mxGeometry relative="1" as="geometry">
            <mxPoint x="1110" y="730" as="targetPoint" />
          </mxGeometry>
        </mxCell>
        <mxCell id="LhFnAlRdqvBIct9EWM2n-62" value="处理组装任务" style="rounded=1;whiteSpace=wrap;html=1;" vertex="1" parent="1">
          <mxGeometry x="890" y="700" width="120" height="60" as="geometry" />
        </mxCell>
        <mxCell id="LhFnAlRdqvBIct9EWM2n-73" style="edgeStyle=orthogonalEdgeStyle;rounded=0;orthogonalLoop=1;jettySize=auto;html=1;" edge="1" parent="1" source="LhFnAlRdqvBIct9EWM2n-69" target="LhFnAlRdqvBIct9EWM2n-18">
          <mxGeometry relative="1" as="geometry" />
        </mxCell>
        <mxCell id="LhFnAlRdqvBIct9EWM2n-74" value="同步" style="edgeLabel;html=1;align=center;verticalAlign=middle;resizable=0;points=[];" vertex="1" connectable="0" parent="LhFnAlRdqvBIct9EWM2n-73">
          <mxGeometry x="0.0625" y="2" relative="1" as="geometry">
            <mxPoint x="-1" as="offset" />
          </mxGeometry>
        </mxCell>
        <mxCell id="LhFnAlRdqvBIct9EWM2n-69" value="" style="rounded=0;whiteSpace=wrap;html=1;" vertex="1" parent="1">
          <mxGeometry x="1131" y="557.5" width="109" height="345" as="geometry" />
        </mxCell>
        <mxCell id="LhFnAlRdqvBIct9EWM2n-70" value="查询案例表" style="rounded=0;whiteSpace=wrap;html=1;" vertex="1" parent="1">
          <mxGeometry x="1140" y="572.5" width="90" height="50" as="geometry" />
        </mxCell>
        <mxCell id="LhFnAlRdqvBIct9EWM2n-71" value="查询设计师表" style="rounded=0;whiteSpace=wrap;html=1;" vertex="1" parent="1">
          <mxGeometry x="1141" y="642.5" width="90" height="50" as="geometry" />
        </mxCell>
        <mxCell id="LhFnAlRdqvBIct9EWM2n-72" value="查询动态信息" style="rounded=0;whiteSpace=wrap;html=1;" vertex="1" parent="1">
          <mxGeometry x="1141" y="712.5" width="90" height="50" as="geometry" />
        </mxCell>
        <mxCell id="LhFnAlRdqvBIct9EWM2n-75" value="门店信息" style="rounded=1;whiteSpace=wrap;html=1;" vertex="1" parent="1">
          <mxGeometry x="-170" y="910" width="120" height="60" as="geometry" />
        </mxCell>
        <mxCell id="LhFnAlRdqvBIct9EWM2n-79" style="edgeStyle=orthogonalEdgeStyle;rounded=0;orthogonalLoop=1;jettySize=auto;html=1;entryX=0.5;entryY=1;entryDx=0;entryDy=0;" edge="1" parent="1" source="LhFnAlRdqvBIct9EWM2n-78" target="LhFnAlRdqvBIct9EWM2n-62">
          <mxGeometry relative="1" as="geometry" />
        </mxCell>
        <mxCell id="LhFnAlRdqvBIct9EWM2n-78" value="案例id列表" style="rounded=1;whiteSpace=wrap;html=1;" vertex="1" parent="1">
          <mxGeometry x="680" y="920" width="120" height="60" as="geometry" />
        </mxCell>
        <mxCell id="LhFnAlRdqvBIct9EWM2n-80" value="查询门店信息" style="rounded=0;whiteSpace=wrap;html=1;" vertex="1" parent="1">
          <mxGeometry x="1140" y="772.5" width="90" height="50" as="geometry" />
        </mxCell>
        <mxCell id="LhFnAlRdqvBIct9EWM2n-87" value="工地信息" style="rounded=1;whiteSpace=wrap;html=1;" vertex="1" parent="1">
          <mxGeometry x="-170" y="1010" width="120" height="60" as="geometry" />
        </mxCell>
        <mxCell id="LhFnAlRdqvBIct9EWM2n-88" value="查询工地信息" style="rounded=0;whiteSpace=wrap;html=1;fillColor=#ffe6cc;strokeColor=#d79b00;" vertex="1" parent="1">
          <mxGeometry x="1140.5" y="840" width="90" height="50" as="geometry" />
        </mxCell>
      </root>
    </mxGraphModel>
  </diagram>
</mxfile>
